<svg width="37" height="37" viewBox="0 0 37 37" fill="none" xmlns="http://www.w3.org/2000/svg">
<g id="Group 164">
<circle id="Ellipse 289" cx="18.5" cy="18.5" r="18" stroke="#0D0D0D"/>
<path id="9168976 1 (Traced)" fill-rule="evenodd" clip-rule="evenodd" d="M15.4863 11.0984C14.4308 11.327 13.1618 11.7316 12.3368 12.1024C12.0591 12.2272 12.0056 12.2709 11.863 12.4888C10.3251 14.8393 9.41346 17.2533 9.0977 19.8113C9.00993 20.5222 8.96969 22.3113 9.02603 22.9955C9.06077 23.4171 9.08322 23.5239 9.14748 23.5732C9.80307 24.0761 11.2749 24.9157 12.221 25.3265C12.9274 25.6332 13.9006 25.99 14.0576 25.9997C14.1456 26.0052 14.2125 25.9324 14.4835 25.5363C14.6603 25.2779 14.8978 24.8944 15.0113 24.6841L15.2177 24.3016L15.0326 24.2314C14.7445 24.122 13.6034 23.5605 13.574 23.5136C13.5595 23.4905 13.6314 23.4041 13.7336 23.3215L13.9195 23.1713L14.3679 23.3566C17.3555 24.5911 20.6386 24.5932 23.6169 23.3625L24.0611 23.179L24.2345 23.3048C24.3299 23.3739 24.4079 23.4558 24.4079 23.4868C24.4079 23.5442 23.5208 24.0046 23.0764 24.1778C22.9413 24.2305 22.8208 24.2895 22.8086 24.3091C22.7807 24.3536 23.1948 25.0775 23.5578 25.6184C23.8825 26.1024 23.7733 26.0907 24.7273 25.7443C25.9789 25.2899 27.151 24.7026 28.235 23.9868C28.5308 23.7914 28.8074 23.6055 28.8495 23.5737C28.9664 23.4856 29.0209 22.6466 28.9927 21.3653C28.9544 19.621 28.7033 18.1572 28.1739 16.5916C27.7263 15.2681 26.9293 13.6651 26.1489 12.5188L25.9449 12.219L25.4676 12.0203C24.7836 11.7356 24.1627 11.5231 23.4557 11.332C22.7183 11.1326 21.9243 10.9717 21.8382 11.0042C21.8042 11.0171 21.6663 11.251 21.532 11.5241C21.3976 11.7971 21.2854 12.0235 21.2828 12.0271C21.2801 12.0308 21.0863 12.0072 20.8521 11.9748C20.1315 11.8751 18.4539 11.8528 17.6225 11.9317C17.2281 11.9692 16.864 12.0097 16.8134 12.0218C16.7318 12.0413 16.6922 11.9851 16.4658 11.5282C16.1649 10.921 16.2113 10.9413 15.4863 11.0984ZM15.971 17.2904C16.6341 17.4145 17.2153 17.9815 17.407 18.6915C17.5426 19.1936 17.445 19.9012 17.1781 20.3517C16.8935 20.8319 16.3504 21.1822 15.8246 21.2247C14.3788 21.3415 13.4109 19.6446 14.1276 18.2497C14.3568 17.8035 14.8377 17.4223 15.316 17.3076C15.5869 17.2426 15.6996 17.2397 15.971 17.2904ZM22.9198 17.3724C23.3349 17.528 23.7033 17.8742 23.9284 18.3204C24.2027 18.8643 24.1806 19.6797 23.8756 20.2734C23.6059 20.7982 23.0265 21.1888 22.4583 21.2289C21.6511 21.2859 20.9284 20.7577 20.6337 19.8953C20.5192 19.5605 20.5297 18.8721 20.6544 18.5338C21.0235 17.5319 22.0041 17.0292 22.9198 17.3724Z" fill="#0D0D0D"/>
</g>
</svg>
