<svg width="37" height="37" viewBox="0 0 37 37" fill="none" xmlns="http://www.w3.org/2000/svg">
<g id="Group 35362">
<g id="Group 35361">
<g id="Group 165">
<circle id="Ellipse 289" cx="18.5" cy="18.5" r="18" stroke="#0D0D0D"/>
</g>
</g>
<path id="Vector" d="M18.4974 15.332C16.753 15.332 15.3295 16.7556 15.3295 18.5C15.3295 20.2444 16.753 21.668 18.4974 21.668C20.2418 21.668 21.6654 20.2444 21.6654 18.5C21.6654 16.7556 20.2418 15.332 18.4974 15.332ZM27.9989 18.5C27.9989 17.1881 28.0108 15.8881 27.9371 14.5786C27.8635 13.0576 27.5165 11.7077 26.4043 10.5954C25.2897 9.48078 23.9421 9.13617 22.4211 9.0625C21.1093 8.98882 19.8093 9.00071 18.4998 9.00071C17.188 9.00071 15.888 8.98882 14.5785 9.0625C13.0575 9.13617 11.7076 9.48316 10.5954 10.5954C9.48077 11.71 9.13617 13.0576 9.0625 14.5786C8.98882 15.8905 9.00071 17.1905 9.00071 18.5C9.00071 19.8095 8.98882 21.1119 9.0625 22.4214C9.13617 23.9424 9.48315 25.2923 10.5954 26.4046C11.71 27.5192 13.0575 27.8638 14.5785 27.9375C15.8904 28.0112 17.1903 27.9993 18.4998 27.9993C19.8117 27.9993 21.1117 28.0112 22.4211 27.9375C23.9421 27.8638 25.292 27.5168 26.4043 26.4046C27.5189 25.29 27.8635 23.9424 27.9371 22.4214C28.0132 21.1119 27.9989 19.8119 27.9989 18.5ZM18.4974 23.3744C15.8 23.3744 13.6231 21.1974 13.6231 18.5C13.6231 15.8026 15.8 13.6256 18.4974 13.6256C21.1948 13.6256 23.3718 15.8026 23.3718 18.5C23.3718 21.1974 21.1948 23.3744 18.4974 23.3744ZM23.5714 14.5643C22.9416 14.5643 22.433 14.0557 22.433 13.4259C22.433 12.7961 22.9416 12.2876 23.5714 12.2876C24.2012 12.2876 24.7098 12.7961 24.7098 13.4259C24.71 13.5755 24.6806 13.7236 24.6235 13.8618C24.5664 14 24.4825 14.1256 24.3768 14.2313C24.271 14.3371 24.1455 14.4209 24.0073 14.4781C23.8691 14.5352 23.721 14.5645 23.5714 14.5643Z" fill="#0D0D0D"/>
</g>
</svg>
