<svg width="37" height="37" viewBox="0 0 37 37" fill="none" xmlns="http://www.w3.org/2000/svg">
<circle cx="18.5" cy="18.5" r="18" fill="#86CCEA" stroke="white"/>
<path d="M28 12.7793C27.3381 13.0799 26.627 13.2831 25.8794 13.3749C26.6508 12.9018 27.2278 12.1572 27.503 11.28C26.7783 11.7212 25.9851 12.0318 25.158 12.1982C24.6018 11.5895 23.8651 11.186 23.0623 11.0504C22.2594 10.9148 21.4354 11.0547 20.7181 11.4484C20.0007 11.8421 19.4303 12.4675 19.0953 13.2276C18.7602 13.9877 18.6794 14.8399 18.8652 15.6519C17.3968 15.5764 15.9603 15.1851 14.649 14.5036C13.3376 13.8221 12.1807 12.8655 11.2533 11.696C10.9362 12.2568 10.7539 12.9069 10.7539 13.5992C10.7535 14.2225 10.9033 14.8362 11.1898 15.386C11.4763 15.9357 11.8908 16.4045 12.3965 16.7506C11.81 16.7315 11.2366 16.5691 10.7238 16.2768V16.3256C10.7237 17.1998 11.0187 18.0471 11.5587 18.7237C12.0987 19.4003 12.8504 19.8646 13.6863 20.0377C13.1423 20.1886 12.5719 20.2109 12.0183 20.1027C12.2542 20.8549 12.7136 21.5127 13.3322 21.9839C13.9508 22.4551 14.6977 22.7163 15.4683 22.7308C14.1602 23.7835 12.5446 24.3545 10.8815 24.352C10.5869 24.3521 10.2926 24.3344 10 24.2992C11.6881 25.4118 13.6532 26.0023 15.6602 26C22.454 26 26.168 20.2319 26.168 15.2294C26.168 15.0668 26.164 14.9027 26.1569 14.7402C26.8793 14.2046 27.5029 13.5414 27.9984 12.7817L28 12.7793Z" fill="white"/>
</svg>
